<svg width="188" height="35" viewBox="0 0 188 35" fill="none" xmlns="http://www.w3.org/2000/svg">
<g clip-path="url(#clip0_88_719)">
<path d="M34.8884 17.4371C34.8884 27.0673 27.0814 34.8741 17.4512 34.8741C7.82101 34.8741 0.0141602 27.0673 0.0141602 17.4371C0.0141602 7.80683 7.82101 0 17.4512 0C27.0814 0 34.8884 7.80683 34.8884 17.4371Z" fill="#22253B"/>
<path d="M21.4009 8.68652H13.2122C10.5471 8.68652 8.37891 10.8547 8.37891 13.5198V21.7086C8.37891 24.3736 10.5471 26.5418 13.2122 26.5418H21.4011C24.0659 26.5418 26.2341 24.3736 26.2341 21.7086V13.5198C26.2341 10.8547 24.0659 8.68652 21.4009 8.68652ZM17.3065 22.4963C14.6145 22.4963 12.4244 20.3062 12.4244 17.6141C12.4244 14.9221 14.6145 12.732 17.3065 12.732C19.9986 12.732 22.1888 14.9221 22.1888 17.6141C22.1888 20.3062 19.9986 22.4963 17.3065 22.4963ZM22.3054 13.8834C21.5099 13.8834 20.8628 13.2363 20.8628 12.4407C20.8628 11.6452 21.5099 10.998 22.3054 10.998C23.101 10.998 23.7481 11.6452 23.7481 12.4407C23.7481 13.2363 23.101 13.8834 22.3054 13.8834Z" fill="white"/>
<path d="M17.3066 13.7788C15.1918 13.7788 13.4712 15.4993 13.4712 17.6142C13.4712 19.7289 15.1918 21.4496 17.3066 21.4496C19.4215 21.4496 21.1419 19.7289 21.1419 17.6142C21.1419 15.4993 19.4215 13.7788 17.3066 13.7788Z" fill="white"/>
<path d="M22.3055 12.0449C22.0873 12.0449 21.9097 12.2226 21.9097 12.4408C21.9097 12.659 22.0873 12.8367 22.3055 12.8367C22.5238 12.8367 22.7016 12.6592 22.7016 12.4408C22.7016 12.2224 22.5238 12.0449 22.3055 12.0449Z" fill="white"/>
</g>
<g clip-path="url(#clip1_88_719)">
<path d="M85.8741 17.4371C85.8741 27.0673 78.0673 34.8741 68.4371 34.8741C58.8068 34.8741 51 27.0673 51 17.4371C51 7.80683 58.8068 0 68.4371 0C78.0673 0 85.8741 7.80683 85.8741 17.4371Z" fill="#22253B"/>
<path fill-rule="evenodd" clip-rule="evenodd" d="M67.8496 22.9579H68.9649C68.9649 22.9579 69.3018 22.9211 69.4738 22.736C69.6322 22.5663 69.6271 22.2475 69.6271 22.2475C69.6271 22.2475 69.6053 20.7549 70.2999 20.5351C70.9846 20.3186 71.8639 21.9777 72.7959 22.6156C73.5005 23.0983 74.036 22.9925 74.036 22.9925L76.528 22.9579C76.528 22.9579 77.8314 22.8779 77.2133 21.8556C77.1628 21.7719 76.8535 21.0995 75.3607 19.7175C73.7982 18.2712 74.0074 18.5051 75.8896 16.0032C77.0359 14.4795 77.4941 13.5493 77.3509 13.1509C77.2143 12.7714 76.3713 12.8717 76.3713 12.8717L73.5657 12.8891C73.5657 12.8891 73.3577 12.8609 73.2034 12.9528C73.0527 13.043 72.9556 13.2532 72.9556 13.2532C72.9556 13.2532 72.5116 14.4323 71.9193 15.435C70.67 17.5509 70.1705 17.6626 69.9663 17.5312C69.4913 17.225 69.6099 16.3011 69.6099 15.6447C69.6099 13.5943 69.9217 12.7393 69.0027 12.518C68.6977 12.4445 68.4733 12.396 67.6933 12.3882C66.6922 12.3778 65.8448 12.3912 65.365 12.6256C65.0459 12.7815 64.7997 13.1289 64.9496 13.1489C65.1351 13.1736 65.555 13.2618 65.7777 13.5642C66.0652 13.9543 66.0551 14.8305 66.0551 14.8305C66.0551 14.8305 66.2203 17.2442 65.6693 17.5441C65.2911 17.7497 64.7723 17.3298 63.6585 15.4103C63.0878 14.427 62.6569 13.3401 62.6569 13.3401C62.6569 13.3401 62.5738 13.137 62.4256 13.0284C62.2457 12.8967 61.9944 12.8548 61.9944 12.8548L59.3283 12.8722C59.3283 12.8722 58.928 12.8833 58.7811 13.0569C58.6504 13.2113 58.7707 13.5306 58.7707 13.5306C58.7707 13.5306 60.8581 18.401 63.2215 20.8555C65.3886 23.1058 67.8496 22.9579 67.8496 22.9579Z" fill="white"/>
</g>
<g clip-path="url(#clip2_88_719)">
<path d="M136.888 17.4371C136.888 27.0673 129.081 34.8741 119.451 34.8741C109.821 34.8741 102.014 27.0673 102.014 17.4371C102.014 7.80683 109.821 0 119.451 0C129.081 0 136.888 7.80683 136.888 17.4371Z" fill="#22253B"/>
<path d="M121.22 12.913H123.246V9.97314H120.864V9.98375C117.978 10.0842 117.387 11.6776 117.335 13.3512H117.329V14.8192H115.364V17.6982H117.329V25.4156H120.29V17.6982H122.716L123.185 14.8192H120.291V13.9322C120.291 13.3667 120.674 12.913 121.22 12.913Z" fill="white"/>
</g>
<g clip-path="url(#clip3_88_719)">
<path d="M187.94 17.4632C187.94 27.1078 180.121 34.9262 170.477 34.9262C160.832 34.9262 153.014 27.1078 153.014 17.4632C153.014 7.81852 160.832 0 170.477 0C180.121 0 187.94 7.81852 187.94 17.4632Z" fill="#22253B"/>
<path d="M179.473 11.6698C178.764 10.8264 177.454 10.4824 174.952 10.4824H165.872C163.313 10.4824 161.981 10.8486 161.274 11.7465C160.585 12.6219 160.585 13.9118 160.585 15.697V19.0996C160.585 22.5583 161.403 24.3142 165.872 24.3142H174.952C177.121 24.3142 178.324 24.0107 179.101 23.2664C179.899 22.5031 180.239 21.2569 180.239 19.0996V15.697C180.239 13.8144 180.186 12.5169 179.473 11.6698ZM173.203 17.8681L169.079 20.0231C168.987 20.0713 168.887 20.0952 168.786 20.0952C168.672 20.0952 168.558 20.0646 168.457 20.0035C168.268 19.8886 168.152 19.683 168.152 19.4612V15.165C168.152 14.9436 168.267 14.7382 168.457 14.6232C168.646 14.5081 168.882 14.5003 169.078 14.6024L173.201 16.7435C173.411 16.8524 173.543 17.069 173.543 17.3053C173.544 17.5418 173.412 17.7587 173.203 17.8681Z" fill="white"/>
</g>
<defs>
<clipPath id="clip0_88_719">
<rect width="35" height="35" fill="white"/>
</clipPath>
<clipPath id="clip1_88_719">
<rect width="35" height="35" fill="white" transform="translate(51)"/>
</clipPath>
<clipPath id="clip2_88_719">
<rect width="35" height="35" fill="white" transform="translate(102)"/>
</clipPath>
<clipPath id="clip3_88_719">
<rect width="35" height="35" fill="white" transform="translate(153)"/>
</clipPath>
</defs>
</svg>
